<svg version="1.1" xmlns="http://www.w3.org/2000/svg" viewBox="0 0 1637.3192878886648 1138.2359428800053" width="3274.6385757773296" height="2276.4718857600105">
  <!-- svg-source:excalidraw -->
  
  <defs>
    <style>
      @font-face {
        font-family: "Virgil";
        src: url("https://excalidraw.com/Virgil.woff2");
      }
      @font-face {
        font-family: "Cascadia";
        src: url("https://excalidraw.com/Cascadia.woff2");
      }
    </style>
  </defs>
  <rect x="0" y="0" width="1637.3192878886648" height="1138.2359428800053" fill="#ffffff"></rect><g stroke-linecap="round" transform="translate(822.7862579819093 183.12550657779903) rotate(0 114.5 81.00000000000003)"><path d="M-1.35 0.2 C49.73 -2.38, 97.11 0.36, 227.73 -0.54 M-0.59 0.02 C56.53 -1.94, 114.03 -0.42, 228.79 -0.67 M228.14 -0.62 C226.63 46.54, 229.79 94.57, 228.96 162.3 M228.91 -0.89 C227.46 44.1, 228.78 87.48, 228.53 161.19 M228.15 161.76 C184.15 160.66, 136.79 159.01, 1.13 161.62 M229.24 161.83 C138.25 163.34, 48.66 163.14, 0.4 162.16 M1.07 160.65 C0.72 119.17, 1.96 71.29, -1.71 1.06 M-0.42 161.52 C0.49 104.82, 0.4 47.31, 0.04 -0.48" stroke="#000000" stroke-width="1" fill="none"></path></g><g transform="translate(903.1725492385262 249.80732167611907) rotate(0 28 25)"><text x="0" y="18" font-family="Virgil, Segoe UI Emoji" font-size="20px" fill="#000000" text-anchor="start" style="white-space: pre;" direction="ltr">App.js</text><text x="0" y="43" font-family="Virgil, Segoe UI Emoji" font-size="20px" fill="#000000" text-anchor="start" style="white-space: pre;" direction="ltr"></text></g><g stroke-linecap="round" transform="translate(859.649895649241 416.38233360157585) rotate(0 73 59.5)"><path d="M-1.16 1.71 C30.64 -0.31, 63.78 1.52, 144.14 1.14 M0.11 -0.19 C33.87 -1.57, 69.85 0.09, 146.93 0.18 M147.99 1.39 C145.21 35.12, 144.73 67.54, 147.16 119.32 M146.71 0.92 C144.81 40.99, 144.79 83.82, 145.44 118.11 M144.4 117.67 C113.35 119.82, 83.65 120.95, -0.61 118.9 M146.99 118.31 C93.51 117.88, 41.41 117.46, 0.52 118.66 M1.16 119.97 C-1.14 89.78, 0.33 56.62, 0.97 -0.37 M-0.61 118.77 C-0.59 83.99, -0.89 50.33, 0.24 -0.42" stroke="#000000" stroke-width="1" fill="none"></path></g><g transform="translate(885.8771262903456 467.01867156960816) rotate(0 43 13)"><text x="0" y="18" font-family="Virgil, Segoe UI Emoji" font-size="20px" fill="#000000" text-anchor="start" style="white-space: pre;" direction="ltr">PostList</text></g><g stroke-linecap="round" transform="translate(872.7865118026127 609.9277491443606) rotate(0 59 46)"><path d="M-0.7 -1.99 C38.54 -0.47, 74.21 0.88, 117.03 -0.39 M-0.21 -0.96 C31.07 -0.66, 63.21 -1.59, 117.71 0.43 M116.74 -0.88 C117.39 35.46, 120.13 67.88, 119.26 92.41 M118.82 -0.4 C117.81 26.55, 117.52 52.22, 118.07 91.72 M116.31 93.97 C90.93 92.43, 65.61 90.63, -1.09 92.17 M118.01 92.63 C72.78 91.65, 26.33 91.43, -0.15 92.31 M-0.86 90.5 C0.18 67.04, -1.03 40.3, 0.46 -0.15 M0.98 92.25 C-0.23 64.37, -0.05 36.33, -0.36 -0.58" stroke="#000000" stroke-width="1" fill="none"></path></g><g transform="translate(877.7865118026127 643.4277491443606) rotate(0 54 13)"><text x="54" y="18" font-family="Virgil, Segoe UI Emoji" font-size="20px" fill="#000000" text-anchor="middle" style="white-space: pre;" direction="ltr">Post</text></g><g stroke-linecap="round" transform="translate(355.3768924392491 437.4963163639936) rotate(0 110 40)"><path d="M-1.37 -1.1 C75.32 -0.98, 151.07 1, 218.36 -1.02 M0.64 0.37 C83.86 -1.2, 165.66 -1.01, 219.36 -0.55 M218.89 1.63 C219.26 31.75, 217.88 62.66, 220.08 81.28 M219.22 -0.42 C218.75 23.66, 218.66 49.59, 220.02 79.77 M219.93 80.56 C155.83 82, 94.77 81.12, 1.31 79.25 M220.54 80.06 C156.96 81.54, 94.73 82.19, -0.15 80.71 M-1.88 80.66 C0.22 49.7, -0.63 17, 0.95 -0.52 M-0.77 80.43 C-1.03 63.91, -0.13 48.08, 0.12 -0.43" stroke="#000000" stroke-width="1" fill="none"></path></g><g transform="translate(378.8768924392491 464.4963163639936) rotate(0 86.5 13)"><text x="86.5" y="18" font-family="Virgil, Segoe UI Emoji" font-size="20px" fill="#000000" text-anchor="middle" style="white-space: pre;" direction="ltr">ModalCreatePost</text></g><g stroke-linecap="round" transform="translate(1215.4749599420845 430.04729568090886) rotate(0 78.5 26)"><path d="M-1.73 -0.37 C35.09 -1.24, 69.44 -2.9, 158.36 -0.75 M-0.34 0.15 C41.58 -0.17, 82.51 -0.21, 156.66 -0.23 M157.68 -0.18 C156.5 15.81, 158.87 34.05, 157.37 52.37 M157.31 -0.3 C157.06 15.22, 156.94 31.09, 156.36 51.88 M157.82 53.32 C113.5 49.25, 73.03 50.88, -1.04 50.99 M157.87 51.7 C103.32 51.8, 49.17 51.62, 0.99 52.53 M1.95 52.07 C0.48 38.83, 0.82 22.53, 0.93 1.3 M0.57 51.75 C1.41 38.92, 1.4 26.95, -0.94 -0.63" stroke="#000000" stroke-width="1" fill="none"></path></g><g transform="translate(1229.4749599420845 443.04729568090886) rotate(0 64.5 13)"><text x="64.5" y="18" font-family="Virgil, Segoe UI Emoji" font-size="20px" fill="#000000" text-anchor="middle" style="white-space: pre;" direction="ltr">NoMorePosts</text></g><g stroke-linecap="round" transform="translate(430.76420734966337 833.9361604287114) rotate(0 62.5 34.5)"><path d="M-0.45 1.75 C45.05 1.24, 93.55 3.1, 125.98 0.83 M-0.4 -0.16 C38.32 -0.14, 78.97 -0.45, 125.06 -0.76 M126.79 1.93 C124.65 18.96, 124.46 41.34, 123.89 68.78 M124.17 0.07 C124.6 16.91, 125.53 34.39, 124.8 69.96 M125.24 69.35 C87.96 67.58, 48.74 70.51, -0.74 67.8 M124.82 69.39 C81.51 70.17, 39.15 70.4, -0.56 68.03 M-0.44 70.58 C2.42 50.26, 1.3 33.22, -0.74 0.69 M-0.92 68.06 C0.03 48.41, -0.04 26.28, -0.2 -0.22" stroke="#000000" stroke-width="1" fill="none"></path></g><g transform="translate(435.76420734966337 855.4361604287114) rotate(0 57.5 13)"><text x="57.5" y="18" font-family="Virgil, Segoe UI Emoji" font-size="20px" fill="#000000" text-anchor="middle" style="white-space: pre;" direction="ltr">Avatar</text></g><g stroke-linecap="round" transform="translate(605.4162299632592 835.4679462502904) rotate(0 62.5 34.5)"><path d="M-1.52 -0.36 C38.84 -0.14, 75.98 -0.18, 126.93 -1.02 M0.64 -0.97 C28.42 -0.54, 55.34 -1.17, 124.05 0.05 M126.19 -0.35 C123.2 13.15, 124.25 29.9, 126.09 69.91 M124.25 -0.92 C125.35 21.6, 124.67 43.79, 124.06 69.71 M123.41 67.57 C82.54 70.28, 41.08 71.01, 1.59 67.97 M124.04 68.27 C76.83 68.93, 26.63 68.69, 0.35 69.87 M1.2 68.82 C1.72 41.42, 0.79 16.68, 1.83 -0.01 M-1 69.56 C0.5 48.93, -0.26 27.47, 0.97 0.35" stroke="#000000" stroke-width="1" fill="none"></path></g><g transform="translate(610.4162299632592 843.9679462502904) rotate(0 57.5 26)"><text x="57.5" y="18" font-family="Virgil, Segoe UI Emoji" font-size="20px" fill="#000000" text-anchor="middle" style="white-space: pre;" direction="ltr">Nome do </text><text x="57.5" y="44" font-family="Virgil, Segoe UI Emoji" font-size="20px" fill="#000000" text-anchor="middle" style="white-space: pre;" direction="ltr">autor</text></g><g stroke-linecap="round" transform="translate(783.2204834556765 834.7725353492453) rotate(0 62.5 44)"><path d="M1.75 1.48 C24.21 -0.37, 51.63 -0.61, 126.37 -1.78 M-0.01 0 C39.68 -1.64, 79.56 -0.59, 125.09 0.64 M125.69 0.14 C125.51 21.89, 123.95 39.37, 124.08 88.69 M125.34 0.19 C124.57 34.67, 125.05 70.05, 124.16 88.48 M125.28 89.43 C84.33 89.67, 48.39 87.34, 0.09 87.05 M124.74 87.14 C81.8 88.25, 39.48 88.24, -0.64 88.8 M0.18 86.29 C1.37 61.75, -0.71 31.72, 1.32 -1.32 M-0.85 87.01 C-0.02 60.22, -1.63 34.36, 0.26 -0.43" stroke="#000000" stroke-width="1" fill="none"></path></g><g transform="translate(788.2204834556765 839.7725353492453) rotate(0 57.5 39)"><text x="57.5" y="18" font-family="Virgil, Segoe UI Emoji" font-size="20px" fill="#000000" text-anchor="middle" style="white-space: pre;" direction="ltr">Data e </text><text x="57.5" y="44" font-family="Virgil, Segoe UI Emoji" font-size="20px" fill="#000000" text-anchor="middle" style="white-space: pre;" direction="ltr">hora do </text><text x="57.5" y="70" font-family="Virgil, Segoe UI Emoji" font-size="20px" fill="#000000" text-anchor="middle" style="white-space: pre;" direction="ltr">post</text></g><g stroke-linecap="round" transform="translate(957.1997859803791 838.4816057236712) rotate(0 62.5 34.5)"><path d="M0.04 0.31 C43.47 -0.61, 81.22 -0.03, 123.55 -0.81 M0.9 0.54 C33.94 -0.86, 66.14 -0.52, 125.84 0.13 M123.03 -1.24 C124.97 16.98, 126.64 30.59, 126.07 70.58 M125.81 -0.73 C125.71 16.5, 124.66 32.32, 125.37 69.45 M125.74 69.25 C95.03 68.93, 64.13 69.8, -0.4 67.78 M125.43 69.71 C91.63 70.45, 58.41 70.57, 0 68.05 M-1.81 69.25 C1.1 52.11, -2.05 32.89, 1.45 -0.32 M-0.22 68.25 C0.68 44, 0.32 21.26, -0.2 0.2" stroke="#000000" stroke-width="1" fill="none"></path></g><g transform="translate(962.1997859803791 846.9816057236712) rotate(0 57.5 26)"><text x="57.5" y="18" font-family="Virgil, Segoe UI Emoji" font-size="20px" fill="#000000" text-anchor="middle" style="white-space: pre;" direction="ltr">Categoria </text><text x="57.5" y="44" font-family="Virgil, Segoe UI Emoji" font-size="20px" fill="#000000" text-anchor="middle" style="white-space: pre;" direction="ltr">do post</text></g><g stroke-linecap="round" transform="translate(1328.6877544851404 836.2793650859358) rotate(0 62.5 31)"><path d="M0.57 0.13 C35.7 0.83, 76.31 1.16, 123.15 -1.18 M-0.37 -0.92 C46.37 -1.37, 93.6 -1.48, 125.06 0.56 M125.02 -1.65 C125.93 17.18, 126.25 35.43, 124.49 63.65 M125.79 -0.43 C124.61 14.87, 124.54 31.07, 124.59 61.62 M124.6 62.99 C83.22 62.43, 40.43 64.23, -0.94 60.86 M125.5 62.27 C80.43 62.09, 36.45 62.9, 0.14 61.89 M-0.35 60.19 C-1.73 43.2, -1.83 26.55, 0.5 0.01 M-0.87 62.75 C0.5 38.83, 0.72 14.54, -0.85 -0.22" stroke="#000000" stroke-width="1" fill="none"></path></g><g transform="translate(1333.6877544851404 841.2793650859358) rotate(0 57.5 26)"><text x="57.5" y="18" font-family="Virgil, Segoe UI Emoji" font-size="20px" fill="#000000" text-anchor="middle" style="white-space: pre;" direction="ltr">Imagem do </text><text x="57.5" y="44" font-family="Virgil, Segoe UI Emoji" font-size="20px" fill="#000000" text-anchor="middle" style="white-space: pre;" direction="ltr">post</text></g><g stroke-linecap="round" transform="translate(1136.626749802776 840.1043160536503) rotate(0 62.5 34.5)"><path d="M-1.72 -1.69 C46.82 -0.85, 95.6 0.05, 123.23 1.79 M-0.95 -0.78 C27.13 0.56, 53.81 -0.06, 125.53 -0.12 M125.04 -1.26 C126.12 16.05, 126.83 32.58, 123.55 68.62 M124.74 -0.3 C125.6 20.65, 125.23 41.85, 124.65 69.2 M125.19 68.28 C92.97 67.28, 65.01 69.32, 1.52 68.82 M124.11 69.53 C80.39 69.92, 36.59 68.47, 0.18 68.65 M1.93 67.95 C-1.38 49.78, -1.47 30.4, -0.15 1.63 M0.3 68.92 C-0.55 54.1, 0.97 38.3, -0.29 0.35" stroke="#000000" stroke-width="1" fill="none"></path></g><g transform="translate(1141.626749802776 848.6043160536503) rotate(0 57.5 26)"><text x="57.5" y="18" font-family="Virgil, Segoe UI Emoji" font-size="20px" fill="#000000" text-anchor="middle" style="white-space: pre;" direction="ltr">Resumo do </text><text x="57.5" y="44" font-family="Virgil, Segoe UI Emoji" font-size="20px" fill="#000000" text-anchor="middle" style="white-space: pre;" direction="ltr">post</text></g><g stroke-linecap="round" transform="translate(1142.1904190350706 988.2359428800053) rotate(0 62.5 70)"><path d="M1.55 0.65 C39.06 -0.86, 78.33 0.48, 123.01 0.49 M0.99 0.27 C44.95 -0.02, 88.21 -0.96, 124.53 0.01 M124.6 -1.01 C124.12 43.92, 124.65 85.84, 126.41 141.86 M125.3 -0.16 C124.81 40.85, 125.37 80.49, 125.53 140.49 M123.08 138.11 C92.77 139.07, 60.72 141.05, -0.39 141.02 M125.72 139.27 C77.59 139.34, 31.45 140.8, 0.12 139.42 M-0.37 139.46 C-1.13 91.85, -2.02 40.57, -0.49 0.91 M0.97 139.22 C0.78 99.22, 1.12 57.1, 0.1 0.76" stroke="#000000" stroke-width="1" fill="none"></path></g><g transform="translate(1147.1904190350706 1006.2359428800053) rotate(0 57.5 52)"><text x="57.5" y="18" font-family="Virgil, Segoe UI Emoji" font-size="20px" fill="#000000" text-anchor="middle" style="white-space: pre;" direction="ltr">Link para </text><text x="57.5" y="44" font-family="Virgil, Segoe UI Emoji" font-size="20px" fill="#000000" text-anchor="middle" style="white-space: pre;" direction="ltr">expandir o </text><text x="57.5" y="70" font-family="Virgil, Segoe UI Emoji" font-size="20px" fill="#000000" text-anchor="middle" style="white-space: pre;" direction="ltr">conteúdo </text><text x="57.5" y="96" font-family="Virgil, Segoe UI Emoji" font-size="20px" fill="#000000" text-anchor="middle" style="white-space: pre;" direction="ltr">textual</text></g><g stroke-linecap="round" transform="translate(1502.3192878886648 832.1293358091948) rotate(0 62.5 70)"><path d="M0.71 -0.54 C29.08 -1.21, 55.05 -2.39, 124.95 -0.14 M-0.42 0.85 C38.09 -0.96, 77.09 -0.45, 125.55 0.38 M126.86 -1.58 C125.87 38.15, 127.69 70.6, 123.28 141.79 M125.53 -0.95 C124.95 41.06, 125.11 82.58, 125.58 139.16 M125.92 140.43 C96.01 140.92, 61.78 140.4, 1.72 140.85 M125.45 139.74 C80.17 138.02, 35.3 138.68, 0.39 139.38 M0.35 140.76 C3.05 106.94, -0.24 72.83, -1.04 -0.15 M0.31 140.78 C0.06 108.39, 0.05 76.96, -0.12 -0.2" stroke="#000000" stroke-width="1" fill="none"></path></g><g transform="translate(1507.3192878886648 837.1293358091948) rotate(0 57.5 65)"><text x="57.5" y="18" font-family="Virgil, Segoe UI Emoji" font-size="20px" fill="#000000" text-anchor="middle" style="white-space: pre;" direction="ltr">Recurso </text><text x="57.5" y="44" font-family="Virgil, Segoe UI Emoji" font-size="20px" fill="#000000" text-anchor="middle" style="white-space: pre;" direction="ltr">para </text><text x="57.5" y="70" font-family="Virgil, Segoe UI Emoji" font-size="20px" fill="#000000" text-anchor="middle" style="white-space: pre;" direction="ltr">editar e </text><text x="57.5" y="96" font-family="Virgil, Segoe UI Emoji" font-size="20px" fill="#000000" text-anchor="middle" style="white-space: pre;" direction="ltr">deletar </text><text x="57.5" y="122" font-family="Virgil, Segoe UI Emoji" font-size="20px" fill="#000000" text-anchor="middle" style="white-space: pre;" direction="ltr">post</text></g><g stroke-linecap="round" transform="translate(10 582.287909693207) rotate(0 62.5 34.5)"><path d="M-1.04 -0.15 C34.18 1.52, 70.77 1.63, 126.55 0.84 M-0.12 -0.2 C31.81 1.14, 63.85 1.05, 124.64 -0.03 M125.86 -1.08 C125.62 22.74, 125.99 46.19, 125.55 68.37 M124.53 -0.39 C126.08 19.12, 126.54 39.27, 125.86 68.86 M123.32 67.72 C83.78 69.04, 46.35 66.85, 1.02 69.36 M126 68.33 C79.14 68.56, 31.1 68.22, -0.61 68.69 M-1.94 70.59 C1.16 41.56, 1.5 17.75, 1.66 -0.03 M0.68 69.69 C0.33 50.08, -0.23 29.15, -0.29 1" stroke="#000000" stroke-width="1" fill="none"></path></g><g transform="translate(15 590.787909693207) rotate(0 57.5 26)"><text x="57.5" y="18" font-family="Virgil, Segoe UI Emoji" font-size="20px" fill="#000000" text-anchor="middle" style="white-space: pre;" direction="ltr">Autor do </text><text x="57.5" y="44" font-family="Virgil, Segoe UI Emoji" font-size="20px" fill="#000000" text-anchor="middle" style="white-space: pre;" direction="ltr">post</text></g><g stroke-linecap="round" transform="translate(180.6178739301438 583.9106518585141) rotate(0 62.5 34.5)"><path d="M1.55 -1.83 C34.36 -0.26, 67.25 -0.53, 126.67 0.21 M0.69 0.36 C32.35 -1.14, 64.36 -0.61, 124.81 -0.62 M124.87 1.13 C124.07 26.99, 125.81 54.49, 124.79 69.05 M125.84 0.15 C125.2 26.87, 125.06 53.71, 125.95 69.36 M125.97 69.4 C92 68.21, 58.11 70.75, 0.77 69.53 M125.15 68.01 C76.36 68.35, 28.59 68.36, 0.24 68.35 M-0.1 68.5 C1.98 42.34, 1.8 12.08, 1.94 1.71 M-0.46 69.17 C-0.63 46.28, -0.27 26.1, 0.99 0.53" stroke="#000000" stroke-width="1" fill="none"></path></g><g transform="translate(185.6178739301438 592.4106518585141) rotate(0 57.5 26)"><text x="57.5" y="18" font-family="Virgil, Segoe UI Emoji" font-size="20px" fill="#000000" text-anchor="middle" style="white-space: pre;" direction="ltr">Selecione a</text><text x="57.5" y="44" font-family="Virgil, Segoe UI Emoji" font-size="20px" fill="#000000" text-anchor="middle" style="white-space: pre;" direction="ltr">categoria</text></g><g stroke-linecap="round" transform="translate(355.40846794918025 580.5492869346111) rotate(0 62.5 34.5)"><path d="M0.16 -1 C51.44 -2.05, 98.55 -2.74, 126.11 -0.63 M0.15 0.99 C40.5 0.6, 82.53 0.31, 125.46 0.01 M123.69 0.13 C126.23 22.89, 124.33 45.56, 124.88 68.23 M125.68 -0.42 C125.2 14.27, 124.97 27.54, 124.36 68.4 M126.76 69.45 C84.17 69.29, 43.55 69.48, 1.89 67.74 M124.43 69.83 C89.28 70.53, 52.28 70.59, 0.84 69.03 M-1 67.93 C1.45 53.16, 0.55 33.93, 1.36 -0.97 M0.82 69.23 C0.45 48.52, 0.09 27.39, -0.28 0.83" stroke="#000000" stroke-width="1" fill="none"></path></g><g transform="translate(360.40846794918025 589.0492869346111) rotate(0 57.5 26)"><text x="57.5" y="18" font-family="Virgil, Segoe UI Emoji" font-size="20px" fill="#000000" text-anchor="middle" style="white-space: pre;" direction="ltr">Escrever </text><text x="57.5" y="44" font-family="Virgil, Segoe UI Emoji" font-size="20px" fill="#000000" text-anchor="middle" style="white-space: pre;" direction="ltr">publicação</text></g><g stroke-linecap="round" transform="translate(516.8696102072042 582.1719972645903) rotate(0 62.5 34.5)"><path d="M-1.99 0.62 C44.79 1.23, 90.31 1.61, 125.05 -0.57 M-0.34 0.53 C40.81 -0.33, 79.73 -1.23, 125.23 -0.27 M123.1 -1.18 C125.28 17.37, 126.45 32.85, 126.71 69.84 M125.14 0.35 C126.18 23.25, 126.22 45.94, 125.2 68.65 M126.64 67.7 C74.7 69.31, 25.28 69.76, -0.96 69.38 M125.98 69.98 C88.24 68.6, 53.8 70.14, 0.82 68.87 M-1.8 68.52 C0.99 45.43, 0.06 21.27, -1.61 -0.67 M0.21 68.38 C0.35 47.79, -0.74 28.97, -0.75 -0.42" stroke="#000000" stroke-width="1" fill="none"></path></g><g transform="translate(521.8696102072042 590.6719972645903) rotate(0 57.5 26)"><text x="57.5" y="18" font-family="Virgil, Segoe UI Emoji" font-size="20px" fill="#000000" text-anchor="middle" style="white-space: pre;" direction="ltr">Botao </text><text x="57.5" y="44" font-family="Virgil, Segoe UI Emoji" font-size="20px" fill="#000000" text-anchor="middle" style="white-space: pre;" direction="ltr">Imagem</text></g><g stroke-linecap="round" transform="translate(675.896495958292 581.708379385451) rotate(0 62.5 34.5)"><path d="M1.95 -1.8 C38.59 -0.21, 81.77 0.4, 124.74 1.1 M-0.24 0.71 C45.55 1.36, 90.8 0.32, 124.66 -0.03 M123.77 1.46 C122.92 23.8, 126.27 47.51, 124.15 70.7 M124.07 -0.6 C125 17.62, 125.97 34.22, 124.62 68.38 M126.67 70.49 C93.41 69.96, 65.05 69.13, -1.22 70.25 M125.11 69.26 C84.09 70.07, 44.65 70.02, -0.45 68.66 M-0.4 69.87 C-1.09 49.68, -2.34 29.03, -1.41 -1.94 M0.65 69.19 C-0.27 43.54, 0.2 18.3, -0.72 -0.97" stroke="#000000" stroke-width="1" fill="none"></path></g><g transform="translate(680.896495958292 590.208379385451) rotate(0 57.5 26)"><text x="57.5" y="18" font-family="Virgil, Segoe UI Emoji" font-size="20px" fill="#000000" text-anchor="middle" style="white-space: pre;" direction="ltr">Botao </text><text x="57.5" y="44" font-family="Virgil, Segoe UI Emoji" font-size="20px" fill="#000000" text-anchor="middle" style="white-space: pre;" direction="ltr">Publicar</text></g><g stroke-linecap="round" transform="translate(189.62569984499555 715.5864232888829) rotate(0 49.5 56.99999999999994)"><path d="M-1.92 1.12 C40.76 1.09, 78.31 0.64, 97.94 1.68 M-0.67 -0.96 C20.06 -0.74, 39.36 -0.73, 98.14 -0.37 M98.9 1.9 C96.06 31.28, 96.67 64.97, 97.26 112.74 M99.74 0.65 C99.04 37.43, 99.59 75.45, 98.5 113.52 M100.14 115.51 C75.94 112.39, 53.26 112.6, -1.86 113.82 M99.36 114.39 C77.36 114.01, 54.53 114.24, -0.58 114.54 M0.56 113.98 C-0.47 78.77, 0.97 42.77, -0.9 1.86 M0.73 113.53 C-1.47 90.04, -1.29 64.79, -0.75 0.06" stroke="#000000" stroke-width="1" fill="none"></path></g><g transform="translate(194.62569984499555 720.5864232888829) rotate(0 44.5 52)"><text x="44.5" y="18" font-family="Virgil, Segoe UI Emoji" font-size="20px" fill="#000000" text-anchor="middle" style="white-space: pre;" direction="ltr">Select:</text><text x="44.5" y="44" font-family="Virgil, Segoe UI Emoji" font-size="20px" fill="#000000" text-anchor="middle" style="white-space: pre;" direction="ltr">-post</text><text x="44.5" y="70" font-family="Virgil, Segoe UI Emoji" font-size="20px" fill="#000000" text-anchor="middle" style="white-space: pre;" direction="ltr">-artigo</text><text x="44.5" y="96" font-family="Virgil, Segoe UI Emoji" font-size="20px" fill="#000000" text-anchor="middle" style="white-space: pre;" direction="ltr">-Grupo</text></g><g stroke-linecap="round"><g transform="translate(931.638665331797 348.9803703154482) rotate(0 -1.0777026479644292 32.53991447650259)"><path d="M-0.81 -1.09 C-1.17 9.73, -3.03 54.09, -3.13 65.24 M0.97 0.96 C1.06 11.84, -0.48 55.2, -0.94 66.17" stroke="#000000" stroke-width="1" fill="none"></path></g><g transform="translate(931.638665331797 348.9803703154482) rotate(0 -1.0777026479644292 32.53991447650259)"><path d="M-11.95 35.95 C-9.97 45.14, -7.05 49.53, -0.17 67.92 M-9.32 36.75 C-7.43 46.46, -4.24 57.35, -0.08 65.21" stroke="#000000" stroke-width="1" fill="none"></path></g><g transform="translate(931.638665331797 348.9803703154482) rotate(0 -1.0777026479644292 32.53991447650259)"><path d="M8.56 36.72 C6.03 45.6, 4.45 49.83, -0.17 67.92 M11.18 37.52 C5.98 47.05, 2.08 57.67, -0.08 65.21" stroke="#000000" stroke-width="1" fill="none"></path></g></g><g stroke-linecap="round"><g transform="translate(932.4993425947089 537.1175355978239) rotate(0 -2.108805921704743 35.69506056457277)"><path d="M0.09 -0.91 C-0.62 11.24, -3.87 60.36, -4.31 72.3 M-1.32 1.22 C-1.67 13.12, -1.88 58.97, -2.16 70.73" stroke="#000000" stroke-width="1" fill="none"></path></g><g transform="translate(932.4993425947089 537.1175355978239) rotate(0 -2.108805921704743 35.69506056457277)"><path d="M-13.57 40.62 C-7.52 51.96, -7.19 59.77, -0.27 71.84 M-11.9 42.03 C-10.18 48.21, -7.75 54.43, -3.04 71.23" stroke="#000000" stroke-width="1" fill="none"></path></g><g transform="translate(932.4993425947089 537.1175355978239) rotate(0 -2.108805921704743 35.69506056457277)"><path d="M6.95 40.89 C6.89 52.17, 1.12 59.89, -0.27 71.84 M8.62 42.3 C5.61 48.58, 3.31 54.73, -3.04 71.23" stroke="#000000" stroke-width="1" fill="none"></path></g></g><g stroke-linecap="round"><g transform="translate(937.4306187023569 347.90060099004575) rotate(0 -180.45407715736656 41.71127005868351)"><path d="M0.94 -0.12 C-59.34 13.79, -300.98 70.53, -361.4 84.65 M-0.03 -1.23 C-60.41 12.84, -301.53 68.93, -361.85 82.91" stroke="#000000" stroke-width="1" fill="none"></path></g><g transform="translate(937.4306187023569 347.90060099004575) rotate(0 -180.45407715736656 41.71127005868351)"><path d="M-336.91 68.14 C-343.48 73.34, -351.66 75.73, -360.75 83.06 M-336.86 66.59 C-345.51 73.5, -355.13 79.37, -362.05 82.06" stroke="#000000" stroke-width="1" fill="none"></path></g><g transform="translate(937.4306187023569 347.90060099004575) rotate(0 -180.45407715736656 41.71127005868351)"><path d="M-332.27 88.13 C-340.53 86.9, -350.22 82.83, -360.75 83.06 M-332.21 86.58 C-342.79 86.04, -354.14 84.46, -362.05 82.06" stroke="#000000" stroke-width="1" fill="none"></path></g></g><g stroke-linecap="round"><g transform="translate(922.5096092787974 346.9293179457594) rotate(0 151.6935107483365 40.5307722173842)"><path d="M-0.21 0.18 C50.74 13.65, 254.39 67.31, 305.16 80.64 M-1.78 -0.76 C49.03 12.86, 252.63 68.22, 304.07 81.83" stroke="#000000" stroke-width="1" fill="none"></path></g><g transform="translate(922.5096092787974 346.9293179457594) rotate(0 151.6935107483365 40.5307722173842)"><path d="M274.49 83.94 C280.71 82.17, 287.58 83.35, 302.7 81.91 M273.34 83.73 C285.92 82.9, 297.11 81.58, 303.82 81.19" stroke="#000000" stroke-width="1" fill="none"></path></g><g transform="translate(922.5096092787974 346.9293179457594) rotate(0 151.6935107483365 40.5307722173842)"><path d="M279.81 64.13 C284.65 67.41, 290.16 73.66, 302.7 81.91 M278.67 63.91 C289.27 70.67, 298.43 76.89, 303.82 81.19" stroke="#000000" stroke-width="1" fill="none"></path></g></g><g stroke-linecap="round"><g transform="translate(460.10167142245484 519.841270876374) rotate(0 -160.85426134018883 24.92137353598946)"><path d="M-0.57 -0.19 C-54.24 8.13, -268.64 41.43, -321.98 49.84 M1.34 -1.34 C-52.51 7.17, -269.35 42.36, -323.04 51.18" stroke="#000000" stroke-width="1" fill="none"></path></g><g transform="translate(460.10167142245484 519.841270876374) rotate(0 -160.85426134018883 24.92137353598946)"><path d="M-297.19 36.16 C-305.41 42.69, -312.61 45.46, -324.02 49.32 M-296.43 36.19 C-304.24 40.88, -311.83 45.58, -323.86 51.36" stroke="#000000" stroke-width="1" fill="none"></path></g><g transform="translate(460.10167142245484 519.841270876374) rotate(0 -160.85426134018883 24.92137353598946)"><path d="M-293.89 56.41 C-303.08 56.81, -311.28 53.47, -324.02 49.32 M-293.13 56.45 C-301.97 55.18, -310.55 53.92, -323.86 51.36" stroke="#000000" stroke-width="1" fill="none"></path></g></g><g stroke-linecap="round"><g transform="translate(462.2612100732598 519.3013862136727) rotate(0 -85.55548312978789 28.52782875967398)"><path d="M0.45 0.62 C-28.15 9.96, -142.06 46.6, -170.61 55.62 M-0.78 -0.11 C-29.62 9.49, -143.06 47.88, -171.56 57.16" stroke="#000000" stroke-width="1" fill="none"></path></g><g transform="translate(462.2612100732598 519.3013862136727) rotate(0 -85.55548312978789 28.52782875967398)"><path d="M-147.02 38.51 C-157.07 45.31, -167.52 53.83, -170.38 56.62 M-148.59 38.77 C-154.08 43.3, -160.81 48.67, -170.58 57.57" stroke="#000000" stroke-width="1" fill="none"></path></g><g transform="translate(462.2612100732598 519.3013862136727) rotate(0 -85.55548312978789 28.52782875967398)"><path d="M-140.54 57.98 C-152.99 57.38, -165.91 58.47, -170.38 56.62 M-142.11 58.24 C-149.15 57.73, -157.57 58.03, -170.58 57.57" stroke="#000000" stroke-width="1" fill="none"></path></g></g><g stroke-linecap="round"><g transform="translate(466.0403582271789 519.841270876374) rotate(0 -14.96763251016364 29.445919605914014)"><path d="M0.29 1.12 C-4.46 10.42, -24.48 47.42, -29.42 56.69 M-1.02 0.66 C-5.82 10.09, -25.41 48.65, -30.22 58.23" stroke="#000000" stroke-width="1" fill="none"></path></g><g transform="translate(466.0403582271789 519.841270876374) rotate(0 -14.96763251016364 29.445919605914014)"><path d="M-24.79 28.9 C-27.22 35.66, -27.9 39.76, -30.72 59.73 M-27.41 29.13 C-28.18 35.44, -28.44 44.25, -29.94 58.64" stroke="#000000" stroke-width="1" fill="none"></path></g><g transform="translate(466.0403582271789 519.841270876374) rotate(0 -14.96763251016364 29.445919605914014)"><path d="M-6.48 38.16 C-13.05 42.91, -17.8 44.95, -30.72 59.73 M-9.1 38.39 C-14.52 42.35, -19.36 48.84, -29.94 58.64" stroke="#000000" stroke-width="1" fill="none"></path></g></g><g stroke-linecap="round"><g transform="translate(469.2796958600462 518.7615015509714) rotate(0 52.922641308969105 30.080011325297278)"><path d="M-1.16 -0.42 C16.67 9.73, 89.06 51.7, 107 61.84 M0.44 -1.68 C18.11 8.04, 88.59 49.64, 106.11 60.16" stroke="#000000" stroke-width="1" fill="none"></path></g><g transform="translate(469.2796958600462 518.7615015509714) rotate(0 52.922641308969105 30.080011325297278)"><path d="M75.93 54.76 C87.02 55.91, 93.62 57.43, 104.99 58.45 M76.99 54.61 C87.8 55.54, 98.09 57.71, 105.9 60" stroke="#000000" stroke-width="1" fill="none"></path></g><g transform="translate(469.2796958600462 518.7615015509714) rotate(0 52.922641308969105 30.080011325297278)"><path d="M86.41 37.12 C94.46 43.52, 97.89 50.39, 104.99 58.45 M87.47 36.97 C94.47 44.5, 100.9 53.2, 105.9 60" stroke="#000000" stroke-width="1" fill="none"></path></g></g><g stroke-linecap="round"><g transform="translate(467.66002704361256 517.6817470538988) rotate(0 127.46618783584506 26.784064418593005)"><path d="M-1.07 -0.12 C41.76 8.9, 213.23 44.48, 256 53.7 M0.57 -1.24 C43.29 7.96, 211.92 45.73, 254.82 54.8" stroke="#000000" stroke-width="1" fill="none"></path></g><g transform="translate(467.66002704361256 517.6817470538988) rotate(0 127.46618783584506 26.784064418593005)"><path d="M224.88 58.07 C230.23 56.71, 239.21 55.96, 256.75 53.23 M225.74 58.67 C236.78 57.92, 247.17 56.37, 255.13 54.98" stroke="#000000" stroke-width="1" fill="none"></path></g><g transform="translate(467.66002704361256 517.6817470538988) rotate(0 127.46618783584506 26.784064418593005)"><path d="M229.26 38.03 C233.58 41.01, 241.6 44.65, 256.75 53.23 M230.12 38.62 C239.59 45.66, 248.28 51.86, 255.13 54.98" stroke="#000000" stroke-width="1" fill="none"></path></g></g><g stroke-linecap="round"><g transform="translate(236.59010316731235 654.2721366957483) rotate(0 -0.07149108322937536 29.805770222969272)"><path d="M1.06 -0.61 C0.85 9.43, -0.37 48.83, -0.54 59.11 M0.15 1.68 C-0.22 11.95, -1.15 50.61, -1.2 60.22" stroke="#000000" stroke-width="1" fill="none"></path></g><g transform="translate(236.59010316731235 654.2721366957483) rotate(0 -0.07149108322937536 29.805770222969272)"><path d="M-12.01 32.8 C-9.12 43.8, -2.36 50.68, 0.18 58.63 M-11.34 32.55 C-8.31 39.8, -6.33 48.77, -1.38 60.97" stroke="#000000" stroke-width="1" fill="none"></path></g><g transform="translate(236.59010316731235 654.2721366957483) rotate(0 -0.07149108322937536 29.805770222969272)"><path d="M8.49 33.14 C4.06 44.19, 3.5 50.95, 0.18 58.63 M9.16 32.88 C6.13 39.93, 2.05 48.81, -1.38 60.97" stroke="#000000" stroke-width="1" fill="none"></path></g></g><g stroke-linecap="round"><g transform="translate(930.3476736540595 702.7427907337387) rotate(0 -202.93460688328082 62.965224979675554)"><path d="M0.32 0.5 C-67.55 21.24, -338.49 104.38, -406.19 125.11 M-0.97 -0.28 C-68.55 20.54, -336.18 105.22, -403.83 126.21" stroke="#000000" stroke-width="1" fill="none"></path></g><g transform="translate(930.3476736540595 702.7427907337387) rotate(0 -202.93460688328082 62.965224979675554)"><path d="M-379.17 106.87 C-390.52 114.49, -400.13 120.94, -403.99 124.69 M-379.05 107.33 C-385.19 110.77, -390.05 115.39, -403.79 125.58" stroke="#000000" stroke-width="1" fill="none"></path></g><g transform="translate(930.3476736540595 702.7427907337387) rotate(0 -202.93460688328082 62.965224979675554)"><path d="M-373.03 126.45 C-386.87 126.49, -398.86 125.34, -403.99 124.69 M-372.9 126.91 C-380.46 126.26, -386.59 126.8, -403.79 125.58" stroke="#000000" stroke-width="1" fill="none"></path></g></g><g stroke-linecap="round"><g transform="translate(931.5029608410675 702.7427907337387) rotate(0 -120.82094546063684 63.79189212318215)"><path d="M-0.19 0.41 C-40.39 21.33, -200.43 105.51, -240.83 126.68 M-1.76 -0.42 C-42.08 21.18, -201.69 107.05, -241.45 128.01" stroke="#000000" stroke-width="1" fill="none"></path></g><g transform="translate(931.5029608410675 702.7427907337387) rotate(0 -120.82094546063684 63.79189212318215)"><path d="M-220.72 106.74 C-228.42 111.05, -233.7 120.41, -243.04 126.96 M-222.39 104.87 C-225.88 111.04, -230.5 114.35, -242.31 127.89" stroke="#000000" stroke-width="1" fill="none"></path></g><g transform="translate(931.5029608410675 702.7427907337387) rotate(0 -120.82094546063684 63.79189212318215)"><path d="M-211.07 124.85 C-222.09 123.22, -230.52 126.66, -243.04 126.96 M-212.74 122.98 C-218.39 125.25, -225.09 124.67, -242.31 127.89" stroke="#000000" stroke-width="1" fill="none"></path></g></g><g stroke-linecap="round"><g transform="translate(931.5029608410675 703.8981096524319) rotate(0 -41.213472711600616 63.719165857692076)"><path d="M0.01 0.02 C-13.62 21.05, -67.64 105.91, -81.28 126.97 M-1.44 -1.01 C-15.31 20.14, -69.44 107.05, -82.44 128.45" stroke="#000000" stroke-width="1" fill="none"></path></g><g transform="translate(931.5029608410675 703.8981096524319) rotate(0 -41.213472711600616 63.719165857692076)"><path d="M-76.33 98.39 C-78.43 107.53, -81.45 119.3, -84.17 127.37 M-76.77 99.67 C-78.95 108.26, -80.64 117.56, -81.56 129" stroke="#000000" stroke-width="1" fill="none"></path></g><g transform="translate(931.5029608410675 703.8981096524319) rotate(0 -41.213472711600616 63.719165857692076)"><path d="M-58.87 109.17 C-66.99 114.63, -75.98 122.73, -84.17 127.37 M-59.31 110.44 C-67.21 115.35, -74.67 121.08, -81.56 129" stroke="#000000" stroke-width="1" fill="none"></path></g></g><g stroke-linecap="round"><g transform="translate(926.881812093035 702.7427907337387) rotate(0 0.605697274787417 -0.2863381338301565)"><path d="M-0.91 -0.61 C-0.52 -0.9, 1.61 -2.19, 2.13 -2.25 M0.81 1.68 C1.04 1.55, 0.99 -1.08, 1.08 -1.29" stroke="#000000" stroke-width="1" fill="none"></path></g><g transform="translate(926.881812093035 702.7427907337387) rotate(0 0.605697274787417 -0.2863381338301565)"><path d="M1.36 -0.06 C1.22 -0.41, 1.25 -0.87, 1.12 -1.36 M1.48 -0.08 C1.37 -0.43, 1.19 -0.93, 1.05 -1.33" stroke="#000000" stroke-width="1" fill="none"></path></g><g transform="translate(926.881812093035 702.7427907337387) rotate(0 0.605697274787417 -0.2863381338301565)"><path d="M0.48 -0.13 C0.58 -0.45, 0.87 -0.89, 1.12 -1.36 M0.6 -0.15 C0.78 -0.48, 0.9 -0.96, 1.05 -1.33" stroke="#000000" stroke-width="1" fill="none"></path></g></g><g stroke-linecap="round"><g transform="translate(930.3476736540595 705.0534285711251) rotate(0 42.187608906016635 67.1147552726465)"><path d="M-0.57 1 C13.04 23.35, 68.48 111.68, 82.56 133.74 M1.34 0.49 C15.26 22.52, 71.24 110.28, 84.94 132.08" stroke="#000000" stroke-width="1" fill="none"></path></g><g transform="translate(930.3476736540595 705.0534285711251) rotate(0 42.187608906016635 67.1147552726465)"><path d="M62.86 112.72 C71.59 122, 79.95 129, 84.21 132.74 M62.08 113.4 C65.31 117.47, 70.52 121.62, 85.41 131.65" stroke="#000000" stroke-width="1" fill="none"></path></g><g transform="translate(930.3476736540595 705.0534285711251) rotate(0 42.187608906016635 67.1147552726465)"><path d="M80.19 101.74 C82.34 115.09, 84.15 126.24, 84.21 132.74 M79.41 102.41 C78.95 108.78, 80.5 115.25, 85.41 131.65" stroke="#000000" stroke-width="1" fill="none"></path></g></g><g stroke-linecap="round"><g transform="translate(930.3476736540595 703.8981096524319) rotate(0 135.90857081771946 66.6632057094074)"><path d="M-0.26 0.66 C44.86 22.97, 224.51 111.35, 269.7 133.36 M1.81 -0.03 C47.41 21.95, 227.31 109.17, 272.07 131.5" stroke="#000000" stroke-width="1" fill="none"></path></g><g transform="translate(930.3476736540595 703.8981096524319) rotate(0 135.90857081771946 66.6632057094074)"><path d="M243.35 127.22 C249.51 129.92, 254.87 129.86, 273.03 129.57 M243.05 128.53 C250.82 129.97, 259.44 129.86, 271.7 131.39" stroke="#000000" stroke-width="1" fill="none"></path></g><g transform="translate(930.3476736540595 703.8981096524319) rotate(0 135.90857081771946 66.6632057094074)"><path d="M252.39 108.79 C256.53 115.46, 259.93 119.39, 273.03 129.57 M252.09 110.11 C257.28 117.1, 263.2 122.48, 271.7 131.39" stroke="#000000" stroke-width="1" fill="none"></path></g></g><g stroke-linecap="round"><g transform="translate(929.1923864670514 703.8981096524319) rotate(0 235.56978085611217 63.93866558453783)"><path d="M0.9 -0.86 C78.93 20.5, 390.83 105.88, 469.1 127.56 M-0.09 1.31 C78.21 22.86, 392.89 107.72, 471.23 128.74" stroke="#000000" stroke-width="1" fill="none"></path></g><g transform="translate(929.1923864670514 703.8981096524319) rotate(0 235.56978085611217 63.93866558453783)"><path d="M439.91 129.46 C451.53 130.66, 465.63 131.12, 471.69 129.15 M441.37 132.12 C449.44 130.43, 456.68 129.11, 470.29 129.69" stroke="#000000" stroke-width="1" fill="none"></path></g><g transform="translate(929.1923864670514 703.8981096524319) rotate(0 235.56978085611217 63.93866558453783)"><path d="M445.24 109.64 C454.74 118.39, 466.82 126.35, 471.69 129.15 M446.71 112.31 C453.46 115.86, 459.29 119.75, 470.29 129.69" stroke="#000000" stroke-width="1" fill="none"></path></g></g><g stroke-linecap="round"><g transform="translate(932.6583749548158 702.7427907337387) rotate(0 321.39066620894437 62.93925805739701)"><path d="M-1.04 1.15 C105.89 21.88, 534.48 104.73, 641.54 125.17 M0.62 0.71 C107.92 20.99, 536.65 102.6, 643.82 123.26" stroke="#000000" stroke-width="1" fill="none"></path></g><g transform="translate(932.6583749548158 702.7427907337387) rotate(0 321.39066620894437 62.93925805739701)"><path d="M616.12 126.67 C623.72 125.11, 630.34 124.13, 642.34 123.7 M614.46 128.21 C622.55 126, 631.85 125.63, 643.6 122.8" stroke="#000000" stroke-width="1" fill="none"></path></g><g transform="translate(932.6583749548158 702.7427907337387) rotate(0 321.39066620894437 62.93925805739701)"><path d="M619.97 106.51 C626.55 110.97, 632.02 116.04, 642.34 123.7 M618.32 108.06 C625.24 111.49, 633.45 116.79, 643.6 122.8" stroke="#000000" stroke-width="1" fill="none"></path></g></g><g stroke-linecap="round"><g transform="translate(1197.2256140434213 913.0102310338764) rotate(0 0.5542176371645837 35.91455065492403)"><path d="M-0.96 0.19 C-0.6 12.29, 1.69 60.49, 2.07 72.58 M0.73 -0.75 C0.92 11.02, 0.5 59.01, 1 70.96" stroke="#000000" stroke-width="1" fill="none"></path></g><g transform="translate(1197.2256140434213 913.0102310338764) rotate(0 0.5542176371645837 35.91455065492403)"><path d="M-9.31 42.51 C-4.94 49.58, -1.61 59.56, 1.02 72.44 M-9.2 42.18 C-5.96 52.1, -2.27 60.58, 1 71.79" stroke="#000000" stroke-width="1" fill="none"></path></g><g transform="translate(1197.2256140434213 913.0102310338764) rotate(0 0.5542176371645837 35.91455065492403)"><path d="M11.21 42.24 C9.59 49.22, 6.94 59.29, 1.02 72.44 M11.32 41.91 C7.74 51.92, 4.63 60.49, 1 71.79" stroke="#000000" stroke-width="1" fill="none"></path></g></g><g transform="translate(460.3524307199293 142.9737560365161) rotate(0 96.5 56.5)"><text x="0" y="13.833333333333332" font-family="Virgil, Segoe UI Emoji" font-size="14.933333333333323px" fill="#364fc7" text-anchor="start" style="white-space: pre;" direction="ltr">PROVIDERS</text><text x="0" y="32.666666666666664" font-family="Virgil, Segoe UI Emoji" font-size="14.933333333333323px" fill="#364fc7" text-anchor="start" style="white-space: pre;" direction="ltr"> </text><text x="0" y="51.5" font-family="Virgil, Segoe UI Emoji" font-size="14.933333333333323px" fill="#364fc7" text-anchor="start" style="white-space: pre;" direction="ltr">    - CurrentPageProvider</text><text x="0" y="70.33333333333333" font-family="Virgil, Segoe UI Emoji" font-size="14.933333333333323px" fill="#364fc7" text-anchor="start" style="white-space: pre;" direction="ltr">    - PostToEditProvider</text><text x="0" y="89.16666666666666" font-family="Virgil, Segoe UI Emoji" font-size="14.933333333333323px" fill="#364fc7" text-anchor="start" style="white-space: pre;" direction="ltr">    - ShowModalProvider</text><text x="0" y="108" font-family="Virgil, Segoe UI Emoji" font-size="14.933333333333323px" fill="#364fc7" text-anchor="start" style="white-space: pre;" direction="ltr">    - PostListProvider</text></g><g stroke-linecap="round" transform="translate(1426.6049405175618 431.0735062930006) rotate(0 90.5 25)"><path d="M0.82 1.49 C49.1 0.39, 98.03 -1.15, 182.82 -1.2 M0.33 0.35 C70.61 -1.81, 142.18 -1.44, 181.91 0.19 M181.32 -0.22 C180.52 20.04, 181.87 38.34, 181.29 51.73 M180.31 0.25 C181.2 11.21, 180.61 22.83, 181.54 49.61 M182.3 49.54 C122.31 49.73, 60.31 50.35, 1.06 49.14 M180.33 50.09 C137.46 49.5, 91.77 48.29, 0.85 50.3 M-0.88 49.99 C-1.58 31.92, 0.52 10.96, 1.4 -1.71 M-0.91 50.12 C0.61 35.42, -0.14 20.26, -0.25 0.86" stroke="#000000" stroke-width="1" fill="none"></path></g><g transform="translate(1436.1049405175618 443.0735062930006) rotate(0 81 13)"><text x="81" y="18" font-family="Virgil, Segoe UI Emoji" font-size="20px" fill="#000000" text-anchor="middle" style="white-space: pre;" direction="ltr">LoadingAnimation</text></g><g stroke-linecap="round"><g transform="translate(1374.3699518410247 445.5475319745209) rotate(0 27.447877928921002 1.4048482062030985)"><path d="M-0.48 0.62 C8.23 1.26, 43.94 2.66, 53.13 2.91 M1.46 -0.1 C10.48 0.25, 46.59 0.49, 55.38 1.05" stroke="#000000" stroke-width="1" fill="none"></path></g><g transform="translate(1374.3699518410247 445.5475319745209) rotate(0 27.447877928921002 1.4048482062030985)"><path d="M30.74 8.04 C40.06 7.55, 48.16 1.76, 55.4 1.36 M29.86 9.9 C39.41 5.43, 46.59 3.4, 55.72 1.61" stroke="#000000" stroke-width="1" fill="none"></path></g><g transform="translate(1374.3699518410247 445.5475319745209) rotate(0 27.447877928921002 1.4048482062030985)"><path d="M31.31 -10.44 C40.28 -4.12, 48.17 -3.09, 55.4 1.36 M30.44 -8.58 C39.68 -6.69, 46.66 -2.37, 55.72 1.61" stroke="#000000" stroke-width="1" fill="none"></path></g></g><g stroke-linecap="round"><g transform="translate(1425.148730654224 466.5038509297375) rotate(0 -25.220057237198148 -0.27393336192221795)"><path d="M-0.69 -1.09 C-9.46 -1.18, -43.36 -1.29, -51.59 -1.54 M1.15 0.95 C-7.33 1.16, -40.71 0.5, -49.3 0.04" stroke="#000000" stroke-width="1" fill="none"></path></g><g transform="translate(1425.148730654224 466.5038509297375) rotate(0 -25.220057237198148 -0.27393336192221795)"><path d="M-26.97 -9.19 C-34.36 -3.71, -45.41 -2.83, -49.02 -1.09 M-24.63 -7.94 C-30.56 -5.97, -36.48 -4.07, -48.61 0.86" stroke="#000000" stroke-width="1" fill="none"></path></g><g transform="translate(1425.148730654224 466.5038509297375) rotate(0 -25.220057237198148 -0.27393336192221795)"><path d="M-27.55 8.17 C-34.58 6.99, -45.4 1.2, -49.02 -1.09 M-25.21 9.43 C-30.95 7.3, -36.73 5.12, -48.61 0.86" stroke="#000000" stroke-width="1" fill="none"></path></g></g><g transform="translate(1371.4681302350875 386.22938682273843) rotate(0 29.125592303595568 14.146716261746406)"><text x="29.125592303595514" y="9.146716261746388" font-family="Virgil, Segoe UI Emoji" font-size="11.09546373470305px" fill="#000000" text-anchor="middle" style="white-space: pre;" direction="ltr">Conditional</text><text x="29.125592303595514" y="23.293432523492775" font-family="Virgil, Segoe UI Emoji" font-size="11.09546373470305px" fill="#000000" text-anchor="middle" style="white-space: pre;" direction="ltr">Render</text></g><g transform="translate(510.56185920777966 10) rotate(0 437.19908355855864 29.07206182230827)"><text x="437.19908355855864" y="41.14412364461651" font-family="Virgil, Segoe UI Emoji" font-size="44.726248957397324px" fill="#000000" text-anchor="middle" style="white-space: pre;" direction="ltr">ÍCARO SOCIAL MEDIA FEED LINKLEI</text></g><g transform="translate(1211.8783485759197 146.5674218770816) rotate(0 138.5 85)"><text x="0" y="12.88888888888889" font-family="Virgil, Segoe UI Emoji" font-size="14.933333333333323px" fill="#364fc7" text-anchor="start" style="white-space: pre;" direction="ltr">DEPENDENCIES</text><text x="0" y="31.77777777777778" font-family="Virgil, Segoe UI Emoji" font-size="14.933333333333323px" fill="#364fc7" text-anchor="start" style="white-space: pre;" direction="ltr"> </text><text x="0" y="50.66666666666667" font-family="Virgil, Segoe UI Emoji" font-size="14.933333333333323px" fill="#364fc7" text-anchor="start" style="white-space: pre;" direction="ltr">    - React bootstrap</text><text x="0" y="69.55555555555556" font-family="Virgil, Segoe UI Emoji" font-size="14.933333333333323px" fill="#364fc7" text-anchor="start" style="white-space: pre;" direction="ltr">    - Styled-components</text><text x="0" y="88.44444444444444" font-family="Virgil, Segoe UI Emoji" font-size="14.933333333333323px" fill="#364fc7" text-anchor="start" style="white-space: pre;" direction="ltr">    - react-read-more-read-less</text><text x="0" y="107.33333333333334" font-family="Virgil, Segoe UI Emoji" font-size="14.933333333333323px" fill="#364fc7" text-anchor="start" style="white-space: pre;" direction="ltr">    - YupResolver + React Hook Form</text><text x="0" y="126.22222222222223" font-family="Virgil, Segoe UI Emoji" font-size="14.933333333333323px" fill="#364fc7" text-anchor="start" style="white-space: pre;" direction="ltr">    - moment.js</text><text x="0" y="145.11111111111111" font-family="Virgil, Segoe UI Emoji" font-size="14.933333333333323px" fill="#364fc7" text-anchor="start" style="white-space: pre;" direction="ltr">    - react router DOM</text><text x="0" y="164" font-family="Virgil, Segoe UI Emoji" font-size="14.933333333333323px" fill="#364fc7" text-anchor="start" style="white-space: pre;" direction="ltr">    - axios</text></g></svg>